<svg xmlns="http://www.w3.org/2000/svg" viewBox="-64 0 511 512" fill="white">
    <defs/>
    <path d="M336.47 64.04h-48v-16a16 16 0 00-15.99-16h-34.73a48 48 0 00-90.53 0H112.5a16 16 0 00-16 16v16h-48a48 48 0 00-47.99 48V464a48 48 0 0048 48h287.98a48 48 0 0048-48V112.03a48 48 0 00-48-48zm-207.98 0h32a16 16 0 0016-16 16 16 0 1132 0 16 16 0 0016 16h31.99v32h-128zM352.47 464a16 16 0 01-16 16H48.5a16 16 0 01-16-16V112.03a16 16 0 0116-16h48v16a16 16 0 0016 16h159.98a16 16 0 0016-16v-16h48a16 16 0 0116 16zm0 0"/>
    <path d="M288.48 192.02H96.49a16 16 0 000 32h191.99a16 16 0 000-32zm0 0M288.48 288.02H96.49a16 16 0 000 32h191.99a16 16 0 000-32zm0 0M288.48 384.01H96.49a16 16 0 100 32h191.99a16 16 0 000-32zm0 0"/>
</svg>
